<svg width="136" height="41" viewBox="0 0 136 41" fill="none" xmlns="http://www.w3.org/2000/svg">
<path d="M28.5514 17.739L26.2047 14.512H23.0669L26.9824 19.8966L28.5514 17.739Z" fill="#F05A28"/>
<path d="M34.8676 14.512H31.7325L28.9672 18.3196L27.401 20.4799L23.8905 25.3055L21.3737 22.0488C21.7432 21.9622 22.0906 21.7999 22.3941 21.5721C22.6977 21.3444 22.9506 21.0561 23.1371 20.7256C23.5169 19.9906 23.7028 19.1708 23.6772 18.3439C23.6775 17.8657 23.6046 17.3903 23.4611 16.9343C23.324 16.4869 23.1011 16.0705 22.8049 15.7083C22.5008 15.341 22.119 15.0459 21.687 14.8441C21.1918 14.6209 20.653 14.5111 20.1099 14.5228H11.501C10.7269 14.5118 9.96095 14.6829 9.2651 15.0224C8.6099 15.3452 8.02737 15.7982 7.55304 16.3537C7.07058 16.9168 6.6978 17.5653 6.45398 18.2656C5.95554 19.6609 5.94507 21.1841 6.42427 22.5862C6.65367 23.283 7.00576 23.9332 7.46393 24.5062C7.92348 25.084 8.49707 25.5611 9.14898 25.9077C9.85589 26.2769 10.6442 26.4626 11.4416 26.4478H17.9604L16.224 24.3496H11.6766C11.2722 24.3424 10.877 24.2278 10.5316 24.0174C10.136 23.7863 9.78407 23.4874 9.49193 23.1344C9.17778 22.7605 8.92278 22.3407 8.73582 21.8895C8.54348 21.4443 8.44334 20.9648 8.44147 20.4799C8.44359 19.9904 8.5475 19.5067 8.74662 19.0595C8.94012 18.6099 9.19751 18.1906 9.51083 17.8146C9.79559 17.4687 10.1371 17.1737 10.5208 16.9424C10.8317 16.7424 11.191 16.6305 11.5604 16.6183H19.6049C19.8522 16.6088 20.0988 16.6493 20.33 16.7374C20.5612 16.8255 20.7723 16.9593 20.9506 17.1309C21.1289 17.3025 21.2707 17.5083 21.3676 17.7359C21.4644 17.9636 21.5144 18.2085 21.5144 18.4559C21.5144 18.7034 21.4644 18.9482 21.3676 19.1759C21.2707 19.4036 21.1289 19.6094 20.9506 19.781C20.7723 19.9525 20.5612 20.0864 20.33 20.1744C20.0988 20.2625 19.8522 20.303 19.6049 20.2936H19.4537H16.4833L21.5789 26.4478H26.1696L30.5362 20.4799L34.8676 14.512Z" fill="white"/>
<path d="M30.9547 21.0443L29.3777 23.21L31.7324 26.4478H34.8865L30.9547 21.0443Z" fill="#F05A28"/>
<path d="M20.4718 40.9597C16.4216 40.9581 12.4628 39.7556 9.09598 37.5043C5.72915 35.253 3.10545 32.0539 1.55662 28.3116C0.00779107 24.5692 -0.396622 20.4517 0.394512 16.4795C1.18565 12.5073 3.1368 8.85891 6.00128 5.99556C8.86577 3.13221 12.5149 1.18249 16.4874 0.392931C20.4599 -0.396632 24.5773 0.00941184 28.319 1.55972C32.0608 3.11003 35.2588 5.73499 37.5088 9.10271C39.7588 12.4704 40.9597 16.4297 40.9597 20.4799C40.954 25.9111 38.7934 31.1181 34.9521 34.9579C31.1109 38.7976 25.903 40.9562 20.4718 40.9597V40.9597ZM20.4718 2.36286C16.8889 2.36446 13.387 3.42837 10.4087 5.42006C7.43044 7.41176 5.1096 10.2418 3.73961 13.5524C2.36962 16.863 2.012 20.5055 2.71196 24.0193C3.41193 27.5331 5.13804 30.7605 7.67208 33.2934C10.2061 35.8263 13.4343 37.551 16.9484 38.2493C20.4625 38.9477 24.1048 38.5885 27.4148 37.217C30.7248 35.8455 33.5538 33.5234 35.5442 30.5443C37.5345 27.5651 38.5969 24.0627 38.5969 20.4799C38.5919 15.6751 36.6804 11.0686 33.2821 7.67188C29.8839 4.27513 25.2766 2.36572 20.4718 2.36286V2.36286Z" fill="#F05A28"/>
<path d="M20.4718 38.0703C16.9931 38.0687 13.5929 37.0357 10.7013 35.1018C7.80959 33.168 5.55625 30.4202 4.22611 27.2058C2.89597 23.9914 2.54878 20.4549 3.22843 17.0432C3.90807 13.6315 5.58403 10.4979 8.04442 8.03869C10.5048 5.57944 13.6391 3.90492 17.0511 3.22685C20.4631 2.54877 23.9995 2.89759 27.2133 4.22921C30.4271 5.56082 33.1738 7.81544 35.1063 10.708C37.0388 13.6005 38.0703 17.0012 38.0703 20.4799C38.0653 25.145 36.2093 29.6175 32.9098 32.9155C29.6103 36.2135 25.1369 38.0674 20.4718 38.0703V38.0703ZM20.4718 3.36201C17.0865 3.36361 13.7778 4.36892 10.9638 6.25083C8.14985 8.13274 5.95708 10.8067 4.66271 13.9348C3.36834 17.0628 3.0305 20.5044 3.69192 23.8244C4.35333 27.1444 5.98428 30.1937 8.37858 32.5869C10.7729 34.98 13.823 36.6096 17.1433 37.2694C20.4636 37.9292 23.9051 37.5898 27.0325 36.2939C30.1599 34.9981 32.8328 32.804 34.7134 29.9892C36.594 27.1744 37.5977 23.8651 37.5977 20.4799C37.592 15.9403 35.7856 11.5884 32.5748 8.37917C29.3641 5.16996 25.0114 3.36558 20.4718 3.36201V3.36201Z" fill="white"/>
<path d="M56.7436 24.0498C56.1606 24.6159 55.4705 25.06 54.7138 25.3563C53.9571 25.6526 53.1489 25.7951 52.3365 25.7754C48.0159 25.7754 46.2039 22.8049 46.1877 19.794C46.1715 16.783 48.1428 13.6802 52.3365 13.6802C53.1279 13.6789 53.9116 13.8348 54.6422 14.1389C55.3728 14.443 56.0357 14.8892 56.5924 15.4517L55.1342 16.8613C54.3789 16.1491 53.3745 15.7613 52.3365 15.7812C49.5362 15.7812 48.3264 17.8686 48.3426 19.8075C48.3588 21.7463 49.4687 23.7203 52.3365 23.7203C53.4222 23.7126 54.4641 23.2916 55.2503 22.543L56.7436 24.0498Z" fill="white"/>
<path d="M69.079 25.508H66.4785L63.0976 21.6329H60.994V25.508H58.8175V13.8963C60.6565 13.8963 62.4955 13.9125 64.3344 13.9125C67.0699 13.9314 68.5093 15.7514 68.5093 17.7578C68.5093 19.3484 67.7801 20.9551 65.5766 21.4034L69.0871 25.3622L69.079 25.508ZM60.994 15.9486V19.6697H64.3236C65.7143 19.6697 66.3111 18.7408 66.3111 17.8119C66.3111 16.8829 65.6981 15.9567 64.3236 15.9567L60.994 15.9486Z" fill="white"/>
<path d="M82.2057 19.7751C82.1733 22.7752 80.3343 25.7754 76.2648 25.7754C72.1953 25.7754 70.2996 22.8427 70.2996 19.794C70.2996 16.7452 72.2547 13.6803 76.2648 13.6803C80.2749 13.6803 82.2408 16.7452 82.2057 19.7751ZM72.4464 19.8264C72.4978 21.7167 73.5266 23.769 76.2594 23.769C78.9922 23.769 80.0184 21.714 80.0535 19.8102C80.0859 17.8551 78.9922 15.6678 76.2594 15.6678C73.5266 15.6678 72.3978 17.8713 72.4464 19.8264V19.8264Z" fill="white"/>
<path d="M94.8463 19.6103C94.8976 22.543 93.1072 25.508 89.0485 25.508H84.4929V13.8963H89.062C93.0235 13.9098 94.7977 16.7452 94.8463 19.6103ZM86.6613 23.4044H89.062C91.6949 23.4044 92.74 21.4817 92.6886 19.5941C92.64 17.7876 91.5788 15.981 89.062 15.981H86.6749L86.6613 23.4044Z" fill="white"/>
<path d="M99.2452 20.7337H105.537V18.7003H97.0768V25.5134H105.767V23.3585H99.2452V20.7337Z" fill="white"/>
<path d="M105.767 13.9071H97.0768V16.0296H105.767V13.9071Z" fill="#F05A28"/>
<path d="M116.152 13.9098H118.553V13.9989L114.627 19.6427L118.677 25.4432V25.508H116.225L113.255 21.1523L110.284 25.508H107.833V25.4432L111.859 19.6427L107.949 13.9989V13.899H110.352L113.252 18.2196L116.152 13.9098Z" fill="white"/>
<path d="M120.538 24.8545C120.538 25.7105 119.239 25.7105 119.239 24.8545C119.239 23.9985 120.538 23.9904 120.538 24.8545Z" fill="#F05A28"/>
<path d="M124.332 20.9767H125.385V25.4216H124.348L124.294 24.7735C124.043 25.2947 123.349 25.5485 122.852 25.5593C121.534 25.5593 120.562 24.7492 120.562 23.1938C120.562 21.6383 121.58 20.8579 122.879 20.8687C123.157 20.8573 123.433 20.9177 123.681 21.044C123.929 21.1703 124.14 21.3582 124.294 21.5897L124.332 20.9767ZM121.661 23.1938C121.651 23.3711 121.677 23.5487 121.739 23.7152C121.801 23.8817 121.897 24.0333 122.021 24.1605C122.146 24.2876 122.295 24.3874 122.46 24.4534C122.625 24.5195 122.802 24.5503 122.979 24.544C124.71 24.544 124.71 21.8436 122.979 21.8436C122.801 21.8355 122.623 21.8652 122.458 21.9307C122.292 21.9961 122.142 22.0959 122.018 22.2234C121.893 22.3509 121.797 22.5032 121.736 22.6705C121.674 22.8377 121.649 23.016 121.661 23.1938V23.1938Z" fill="#F05A28"/>
<path d="M125.966 27.2795V20.9767H126.992L127.065 21.5897C127.231 21.365 127.449 21.1832 127.7 21.0593C127.95 20.9353 128.227 20.8728 128.507 20.8768C128.812 20.8687 129.116 20.9236 129.4 21.0382C129.683 21.1527 129.94 21.3244 130.154 21.5426C130.368 21.7607 130.535 22.0207 130.644 22.3061C130.753 22.5916 130.802 22.8965 130.789 23.2019C130.789 24.5035 129.979 25.5323 128.545 25.5323C128.075 25.5323 127.381 25.3865 127.065 24.8977V27.2795H125.966ZM129.69 23.2019C129.675 22.8771 129.535 22.5707 129.3 22.3462C129.065 22.1217 128.752 21.9965 128.427 21.9965C128.102 21.9965 127.789 22.1217 127.554 22.3462C127.319 22.5707 127.18 22.8771 127.165 23.2019C127.157 23.3726 127.184 23.5431 127.243 23.7031C127.303 23.8632 127.395 24.0094 127.513 24.133C127.631 24.2566 127.773 24.355 127.93 24.4222C128.087 24.4894 128.256 24.5241 128.427 24.5241C128.598 24.5241 128.767 24.4894 128.924 24.4222C129.081 24.355 129.223 24.2566 129.341 24.133C129.459 24.0094 129.551 23.8632 129.611 23.7031C129.671 23.5431 129.697 23.3726 129.69 23.2019Z" fill="#F05A28"/>
<path d="M131.172 27.2795V20.9767H132.201L132.271 21.5897C132.439 21.3652 132.657 21.1835 132.908 21.0595C133.159 20.9356 133.436 20.873 133.716 20.8768C134.021 20.8687 134.325 20.9236 134.609 21.0382C134.892 21.1527 135.149 21.3244 135.363 21.5426C135.577 21.7607 135.744 22.0207 135.853 22.3061C135.962 22.5916 136.012 22.8965 135.998 23.2019C135.998 24.5035 135.188 25.5323 133.751 25.5323C133.284 25.5323 132.587 25.3865 132.271 24.8977V27.2795H131.172ZM134.896 23.2019C134.881 22.8771 134.741 22.5707 134.506 22.3462C134.271 22.1217 133.959 21.9965 133.634 21.9965C133.308 21.9965 132.996 22.1217 132.761 22.3462C132.526 22.5707 132.386 22.8771 132.371 23.2019C132.363 23.3726 132.39 23.5431 132.45 23.7031C132.51 23.8632 132.601 24.0094 132.719 24.133C132.838 24.2566 132.979 24.355 133.136 24.4222C133.294 24.4894 133.463 24.5241 133.634 24.5241C133.804 24.5241 133.974 24.4894 134.131 24.4222C134.288 24.355 134.43 24.2566 134.548 24.133C134.666 24.0094 134.757 23.8632 134.817 23.7031C134.877 23.5431 134.904 23.3726 134.896 23.2019Z" fill="#F05A28"/>
</svg>
